#Comment line ignore any data following # character 
#Hierarchical Translation and Rotation (.htr) file 
[Header]	
#Header keywords are followed by a single value 
FileType HTR		#Single word string
DataType HTRS		#Translation followed by rotation and scale data
FileVersion 1		#integer
NumSegments 64		#integer
NumFrames 3		#integer
DataFrameRate 30		#integer, data frame rate in this file
EulerRotationOrder ZYX
CalibrationUnits mm
RotationUnits Degrees
GlobalAxisofGravity Y
BoneLengthAxis Y
ScaleFactor 1.00
[SegmentNames&Hierarchy]
#CHILD	PARENT
Pinger_Root GLOBAL
Pelvis Pinger_Root
L_Hip Pelvis
R_Hip Pelvis
Rear_Leg01 Pelvis
Spine1 Pelvis
L_Leg01 L_Hip
L_Leg02 L_Leg01
L_Leg03 L_Leg02
L_Foot L_Leg03
L_Toe1_01 L_Foot
L_Toe2_01 L_Foot
L_Toe3_01 L_Foot
planeAlignerLeft L_Foot
L_Toe1_02 L_Toe1_01
L_Toe1_03 L_Toe1_02
L_Toe2_02 L_Toe2_01
L_Toe2_03 L_Toe2_02
L_Toe3_02 L_Toe3_01
L_Toe3_03 L_Toe3_02
planeLockWeightLeft planeAlignerLeft
R_Leg01 R_Hip
R_Leg02 R_Leg01
R_Leg03 R_Leg02
R_Foot R_Leg03
planeAlignerRight R_Foot
R_Toe1_01 R_Foot
R_Toe2_01 R_Foot
R_Toe3_01 R_Foot
planeLockWeightRight planeAlignerRight
R_Toe1_02 R_Toe1_01
R_Toe1_03 R_Toe1_02
R_Toe2_02 R_Toe2_01
R_Toe2_03 R_Toe2_02
R_Toe3_02 R_Toe3_01
R_Toe3_03 R_Toe3_02
Rear_Leg02 Rear_Leg01
Rear_Leg03 Rear_Leg02
Rear_Leg04 Rear_Leg03
Rear_Foot Rear_Leg04
planeAlignerCenter Rear_Foot
Rear_Toe1_01 Rear_Foot
Rear_Toe2_01 Rear_Foot
Rear_Toe3_01 Rear_Foot
planeLockWeightCenter planeAlignerCenter
Rear_Toe1_02 Rear_Toe1_01
Rear_Toe1_03 Rear_Toe1_02
Rear_Toe2_02 Rear_Toe2_01
Rear_Toe2_03 Rear_Toe2_02
Rear_Toe3_02 Rear_Toe3_01
Rear_Toe3_03 Rear_Toe3_02
Back_Bone Spine1
Head Spine1
Motor_Bone Back_Bone
Ping_Mechanism Back_Bone
BN_LookIK Head
bottomMouth Head
L_Mouth01 Head
L_mouthFront Head
mouthGun Head
R_Mouth01 Head
R_mouthFront Head
TopMouth Head
weapon_bone Head
[BasePosition]
#SegmentName Tx, Ty, Tz, Rx, Ry, Rz, BoneLength
Pinger_Root 0.000000 0.000000 0.000000 -90.000000 0.000000 0.000000 10.000000 
Pelvis 0.000000 0.000000 0.000000 0.000000 0.000000 0.000000 10.000000 
L_Hip 0.000000 0.000000 0.000000 0.000000 0.000000 0.000000 10.000000 
R_Hip 0.000000 0.000000 0.000000 0.000000 0.000000 0.000000 10.000000 
Rear_Leg01 0.000000 0.000000 0.000000 0.000000 0.000000 0.000000 10.000000 
Spine1 0.000000 0.000000 0.000000 0.000000 0.000000 0.000000 10.000000 
L_Leg01 0.000000 0.000000 0.000000 0.000000 0.000000 0.000000 10.000000 
L_Leg02 0.000000 0.000000 0.000000 0.000000 0.000000 0.000000 10.000000 
L_Leg03 0.000000 0.000000 0.000000 0.000000 0.000000 0.000000 10.000000 
L_Foot 0.000000 0.000000 0.000000 0.000000 0.000000 0.000000 10.000000 
L_Toe1_01 0.000000 0.000000 0.000000 0.000000 0.000000 0.000000 10.000000 
L_Toe2_01 0.000000 0.000000 0.000000 0.000000 0.000000 0.000000 10.000000 
L_Toe3_01 0.000000 0.000000 0.000000 0.000000 0.000000 0.000000 10.000000 
planeAlignerLeft 0.000000 0.000000 0.000000 0.000000 0.000000 0.000000 10.000000 
L_Toe1_02 0.000000 0.000000 0.000000 0.000000 0.000000 0.000000 10.000000 
L_Toe1_03 0.000000 0.000000 0.000000 0.000000 0.000000 0.000000 10.000000 
L_Toe2_02 0.000000 0.000000 0.000000 0.000000 0.000000 0.000000 10.000000 
L_Toe2_03 0.000000 0.000000 0.000000 0.000000 0.000000 0.000000 10.000000 
L_Toe3_02 0.000000 0.000000 0.000000 0.000000 0.000000 0.000000 10.000000 
L_Toe3_03 0.000000 0.000000 0.000000 0.000000 0.000000 0.000000 10.000000 
planeLockWeightLeft 0.000000 0.000000 0.000000 0.000000 0.000000 0.000000 10.000000 
R_Leg01 0.000000 0.000000 0.000000 0.000000 0.000000 0.000000 10.000000 
R_Leg02 0.000000 0.000000 0.000000 0.000000 0.000000 0.000000 10.000000 
R_Leg03 0.000000 0.000000 0.000000 0.000000 0.000000 0.000000 10.000000 
R_Foot 0.000000 0.000000 0.000000 0.000000 0.000000 0.000000 10.000000 
planeAlignerRight 0.000000 0.000000 0.000000 0.000000 0.000000 0.000000 10.000000 
R_Toe1_01 0.000000 0.000000 0.000000 0.000000 0.000000 0.000000 10.000000 
R_Toe2_01 0.000000 0.000000 0.000000 0.000000 0.000000 0.000000 10.000000 
R_Toe3_01 0.000000 0.000000 0.000000 0.000000 0.000000 0.000000 10.000000 
planeLockWeightRight 0.000000 0.000000 0.000000 0.000000 0.000000 0.000000 10.000000 
R_Toe1_02 0.000000 0.000000 0.000000 0.000000 0.000000 0.000000 10.000000 
R_Toe1_03 0.000000 0.000000 0.000000 0.000000 0.000000 0.000000 10.000000 
R_Toe2_02 0.000000 0.000000 0.000000 0.000000 0.000000 0.000000 10.000000 
R_Toe2_03 0.000000 0.000000 0.000000 0.000000 0.000000 0.000000 10.000000 
R_Toe3_02 0.000000 0.000000 0.000000 0.000000 0.000000 0.000000 10.000000 
R_Toe3_03 0.000000 0.000000 0.000000 0.000000 0.000000 0.000000 10.000000 
Rear_Leg02 0.000000 0.000000 0.000000 0.000000 0.000000 0.000000 10.000000 
Rear_Leg03 0.000000 0.000000 0.000000 0.000000 0.000000 0.000000 10.000000 
Rear_Leg04 0.000000 0.000000 0.000000 0.000000 0.000000 0.000000 10.000000 
Rear_Foot 0.000000 0.000000 0.000000 0.000000 0.000000 0.000000 10.000000 
planeAlignerCenter 0.000000 0.000000 0.000000 0.000000 0.000000 0.000000 10.000000 
Rear_Toe1_01 0.000000 0.000000 0.000000 0.000000 0.000000 0.000000 10.000000 
Rear_Toe2_01 0.000000 0.000000 0.000000 0.000000 0.000000 0.000000 10.000000 
Rear_Toe3_01 0.000000 0.000000 0.000000 0.000000 0.000000 0.000000 10.000000 
planeLockWeightCenter 0.000000 0.000000 0.000000 0.000000 0.000000 0.000000 10.000000 
Rear_Toe1_02 0.000000 0.000000 0.000000 0.000000 0.000000 0.000000 10.000000 
Rear_Toe1_03 0.000000 0.000000 0.000000 0.000000 0.000000 0.000000 10.000000 
Rear_Toe2_02 0.000000 0.000000 0.000000 0.000000 0.000000 0.000000 10.000000 
Rear_Toe2_03 0.000000 0.000000 0.000000 0.000000 0.000000 0.000000 10.000000 
Rear_Toe3_02 0.000000 0.000000 0.000000 0.000000 0.000000 0.000000 10.000000 
Rear_Toe3_03 0.000000 0.000000 0.000000 0.000000 0.000000 0.000000 10.000000 
Back_Bone 0.000000 0.000000 0.000000 0.000000 0.000000 0.000000 10.000000 
Head 0.000000 0.000000 0.000000 0.000000 0.000000 0.000000 10.000000 
Motor_Bone 0.000000 0.000000 0.000000 0.000000 0.000000 0.000000 10.000000 
Ping_Mechanism 0.000000 0.000000 0.000000 0.000000 0.000000 0.000000 10.000000 
BN_LookIK 0.000000 0.000000 0.000000 0.000000 0.000000 0.000000 10.000000 
bottomMouth 0.000000 0.000000 0.000000 0.000000 0.000000 0.000000 10.000000 
L_Mouth01 0.000000 0.000000 0.000000 0.000000 0.000000 0.000000 10.000000 
L_mouthFront 0.000000 0.000000 0.000000 0.000000 0.000000 0.000000 10.000000 
mouthGun 0.000000 0.000000 0.000000 0.000000 0.000000 0.000000 10.000000 
R_Mouth01 0.000000 0.000000 0.000000 0.000000 0.000000 0.000000 10.000000 
R_mouthFront 0.000000 0.000000 0.000000 0.000000 0.000000 0.000000 10.000000 
TopMouth 0.000000 0.000000 0.000000 0.000000 0.000000 0.000000 10.000000 
weapon_bone 0.000000 0.000000 0.000000 0.000000 0.000000 0.000000 10.000000 
#Beginning of Data. Separated by tabs
#Fr	Tx	Ty	Tz	Rx	Ry	Rz	SF
[Pinger_Root]
71 -2499.999756 -0.000690 0.000000 -0.000075 -0.000000 -0.000020 2499.999756
72 -2499.999756 -0.000690 0.000000 -0.000075 -0.000000 -0.000020 2499.999756
73 -2499.999756 -0.000690 0.000000 -0.000075 -0.000000 -0.000020 2499.999756
[Pelvis]
71 3.434196 957.254639 4390.604492 -77.761131 -78.162506 73.751099 4493.746094
72 14.578872 951.142151 4402.696777 -80.041283 -79.793861 75.305305 4504.289063
73 25.723509 945.029663 4414.788574 -83.043411 -81.409912 77.583351 4514.875977
[L_Hip]
71 5.766392 125.831482 872.656799 159.774231 -50.660999 119.947128 881.701050
72 5.766392 125.831482 872.656799 159.813553 -49.741684 120.368080 881.701050
73 5.766392 125.831482 872.656799 159.862381 -48.822739 120.782181 881.701050
[R_Hip]
71 5.765438 125.836372 -872.654907 37.644581 54.555107 124.806091 881.699829
72 5.765438 125.836372 -872.654907 37.743729 53.773724 124.967545 881.699829
73 5.765438 125.836372 -872.654907 37.837379 52.992168 125.123764 881.699829
[Rear_Leg01]
71 -192.298416 -925.602966 -0.001907 174.540863 4.206883 -161.274734 945.367432
72 -192.298416 -925.602966 -0.001907 173.537964 3.827284 -160.563034 945.367432
73 -192.298416 -925.602966 -0.001907 172.530960 3.460242 -159.845184 945.367432
[Spine1]
71 290.604584 5.007505 0.000477 4.410845 -2.922623 11.802683 290.647736
72 290.604584 5.007505 0.000477 5.020072 -2.385647 13.293139 290.647736
73 290.604584 5.007505 0.000477 5.642851 -1.864701 14.788705 290.647736
[L_Leg01]
71 761.932007 -0.002384 -0.069261 18.691359 -27.024429 -12.027147 761.932068
72 761.932007 -0.002384 -0.069261 19.710751 -24.570089 -11.862764 761.932068
73 761.932007 -0.002384 -0.069261 20.476009 -22.657116 -11.486714 761.932068
[L_Leg02]
71 1441.140503 -0.000954 -0.000715 2.431879 -0.134078 -124.827827 1441.140503
72 1441.140503 -0.000954 -0.000715 2.457879 -0.141927 -125.463142 1441.140503
73 1441.140503 -0.000954 -0.000715 2.483968 -0.149487 -126.098518 1441.140503
[L_Leg03]
71 1686.963989 -0.000715 -0.000954 -0.032783 0.015849 119.445190 1686.963989
72 1686.963989 -0.000715 -0.000954 -0.031311 0.015390 119.209175 1686.963989
73 1686.963989 -0.000715 -0.000954 -0.029837 0.014937 118.973198 1686.963989
[L_Foot]
71 3041.570068 -30.715107 11.297464 3.097932 11.921819 52.112530 3041.746094
72 3041.570068 -30.715107 11.297464 2.880834 12.142929 52.789413 3041.746094
73 3041.570068 -30.715107 11.297464 2.666271 12.366496 53.465897 3041.746094
[L_Toe1_01]
71 -188.216690 -224.732346 -21.137953 93.168121 -6.284743 -172.169739 293.899567
72 -188.216690 -224.732346 -21.137953 93.260963 -6.374612 -172.182404 293.899567
73 -188.216690 -224.732346 -21.137953 93.353813 -6.464456 -172.195206 293.899567
[L_Toe2_01]
71 200.746536 -219.926590 148.838394 -88.970123 -24.731068 -49.339409 332.896027
72 200.746536 -219.926590 148.838394 -89.193787 -25.032532 -49.884258 332.896027
73 200.746536 -219.926590 148.838394 -89.414795 -25.335865 -50.429073 332.896027
[L_Toe3_01]
71 188.832520 -219.859131 -191.078659 -100.825821 16.273598 -62.526176 347.140900
72 188.832520 -219.859131 -191.078659 -100.665939 15.872893 -63.346481 347.140900
73 188.832520 -219.859131 -191.078659 -100.500427 15.474441 -64.166351 347.140900
[planeAlignerLeft]
71 46.970284 -564.541504 83.003700 169.280319 -78.328247 91.547165 572.540771
72 45.051403 -568.502014 85.606476 169.290421 -78.006897 91.291504 576.673767
73 43.132519 -572.462463 88.209221 169.293518 -77.685440 91.042625 580.822266
[L_Toe1_02]
71 413.761139 0.000477 0.000000 0.001384 -25.953226 0.001384 413.761139
72 413.761139 0.000477 0.000000 0.001384 -25.959196 0.001384 413.761139
73 413.761139 0.000477 0.000000 0.001384 -25.965166 0.001384 413.761139
[L_Toe1_03]
71 464.317322 0.000358 -0.000089 0.004001 55.882229 0.004001 464.317322
72 464.317322 0.000358 -0.000089 0.003968 55.586926 0.003968 464.317322
73 464.317322 0.000358 -0.000089 0.003935 55.291607 0.003935 464.317322
[L_Toe2_02]
71 342.235809 -0.000477 0.000238 0.001186 -73.573570 0.001186 342.235809
72 342.235809 -0.000477 0.000238 0.001186 -73.421967 0.001186 342.235809
73 342.235809 -0.000477 0.000238 0.001186 -73.270340 0.001186 342.235809
[L_Toe2_03]
71 420.210846 -0.000715 0.000000 -0.040869 88.316116 -0.037371 420.210846
72 420.210846 -0.000715 0.000000 -0.032233 87.838882 -0.028735 420.210846
73 420.210846 -0.000715 0.000000 -0.026720 87.361961 -0.023222 420.210846
[L_Toe3_02]
71 329.270111 0.000954 0.000000 0.001177 -81.580162 0.001177 329.270111
72 329.270111 0.000954 0.000000 0.001177 -81.459442 0.001177 329.270111
73 329.270111 0.000954 0.000000 0.001177 -81.338623 0.001177 329.270111
[L_Toe3_03]
71 439.137451 -0.001907 0.000954 -179.997620 74.081848 -179.994080 439.137451
72 439.137451 -0.001907 0.000954 -179.997437 74.752640 -179.993896 439.137451
73 439.137451 -0.001907 0.000954 -179.997238 75.423309 -179.993713 439.137451
[planeLockWeightLeft]
71 1000.000488 0.000000 -0.000239 -0.011826 -0.004376 0.005620 1000.000488
72 1000.000488 0.000000 -0.000251 -0.011826 -0.004376 0.005620 1000.000488
73 1000.000488 0.000000 -0.000262 -0.011826 -0.004376 0.005620 1000.000488
[R_Leg01]
71 761.455627 -0.001907 -0.000358 130.102097 -7.214600 31.998463 761.455688
72 761.455627 -0.001907 -0.000358 128.269669 -6.820350 33.227280 761.455688
73 761.455627 -0.001907 -0.000358 126.770897 -6.706024 34.102669 761.455688
[R_Leg02]
71 1441.140625 0.000000 -0.000238 -1.740073 -0.442814 -117.063950 1441.140625
72 1441.140625 0.000000 -0.000238 -1.634879 -0.365636 -116.246910 1441.140625
73 1441.140625 0.000000 -0.000238 -1.542904 -0.312661 -115.793930 1441.140625
[R_Leg03]
71 1686.963989 0.000954 0.001431 0.097482 -0.057509 136.871887 1686.963989
72 1686.963989 0.000954 0.001431 0.092508 -0.054184 135.719864 1686.963989
73 1686.963989 0.000954 0.001431 0.087472 -0.050962 134.568405 1686.963989
[R_Foot]
71 3041.560059 -30.531288 -11.204481 0.311351 -17.501789 52.983387 3041.734131
72 3041.560059 -30.531288 -11.204481 0.028564 -18.450401 53.147564 3041.734131
73 3041.560059 -30.531288 -11.204481 -0.258647 -19.398001 53.317566 3041.734131
[planeAlignerRight]
71 -127.141861 -574.029297 -312.901062 -36.583759 -71.418259 -64.296967 666.019348
72 -127.142548 -574.028259 -312.901184 -36.583092 -71.410309 -64.301643 666.018616
73 -127.143234 -574.027161 -312.901337 -36.582417 -71.402405 -64.306396 666.017883
[R_Toe1_01]
71 -188.383347 -224.864899 21.052242 76.087608 -0.481798 -172.712906 294.101532
72 -188.383347 -224.864899 21.052242 76.155205 -0.475086 -172.714523 294.101532
73 -188.383347 -224.864899 21.052242 76.222786 -0.468373 -172.716125 294.101532
[R_Toe2_01]
71 200.637817 -220.002121 -148.787384 -93.227234 32.390125 -59.160286 332.857574
72 200.637817 -220.002121 -148.787384 -92.984459 32.469147 -59.165039 332.857574
73 200.637817 -220.002121 -148.787384 -92.741470 32.548161 -59.169376 332.857574
[R_Toe3_01]
71 188.606735 -220.092957 191.126343 -72.146530 -8.144753 -73.643463 347.192566
72 188.606735 -220.092957 191.126343 -72.335548 -8.183798 -73.663757 347.192566
73 188.606735 -220.092957 191.126343 -72.524590 -8.222907 -73.683922 347.192566
[planeLockWeightRight]
71 999.999634 0.000361 -0.000531 -0.011823 -0.004379 -0.000027 999.999634
72 999.999695 0.000355 -0.000540 -0.011823 -0.004379 -0.000027 999.999695
73 999.999695 0.000350 -0.000549 -0.011823 -0.004379 -0.000027 999.999695
[R_Toe1_02]
71 413.762085 0.000477 -0.000119 0.001394 -24.665104 0.001394 413.762085
72 413.762085 0.000477 -0.000119 0.001394 -24.664541 0.001394 413.762085
73 413.762085 0.000477 -0.000119 0.001394 -24.663980 0.001394 413.762085
[R_Toe1_03]
71 464.317810 0.000000 0.001088 0.006616 69.563271 0.006616 464.317810
72 464.317810 0.000000 0.001088 0.006617 69.566254 0.006617 464.317810
73 464.317810 0.000000 0.001088 0.006618 69.569290 0.006618 464.317810
[R_Toe2_02]
71 342.234741 -0.000954 0.000238 0.001197 -67.217545 0.001197 342.234741
72 342.234741 -0.000954 0.000238 0.001197 -67.217918 0.001197 342.234741
73 342.234741 -0.000954 0.000238 0.001197 -67.218300 0.001197 342.234741
[R_Toe2_03]
71 420.210846 0.000715 -0.000268 0.008219 73.581802 0.008219 420.210846
72 420.210846 0.000715 -0.000268 0.008231 73.605881 0.008231 420.210846
73 420.210846 0.000715 -0.000268 0.008232 73.606583 0.008232 420.210846
[R_Toe3_02]
71 329.270355 -0.000477 -0.000954 0.001184 -74.470352 0.001184 329.270355
72 329.270355 -0.000477 -0.000954 0.001184 -74.475197 0.001184 329.270355
73 329.270355 -0.000477 -0.000954 0.001184 -74.480011 0.001184 329.270355
[R_Toe3_03]
71 439.137939 0.000238 0.001431 -0.011423 83.186401 -0.007920 439.137939
72 439.137939 0.000238 0.001431 -0.011439 83.197838 -0.007936 439.137939
73 439.137939 0.000238 0.001431 -0.011455 83.209160 -0.007953 439.137939
[Rear_Leg02]
71 1162.777710 -0.029802 0.005960 -0.002242 -2.250486 -103.072815 1162.777710
72 1162.777710 -0.029802 0.005960 0.034109 -2.439639 -105.344719 1162.777710
73 1162.777710 -0.029802 0.005960 0.077887 -2.626982 -107.614388 1162.777710
[Rear_Leg03]
71 607.192505 -0.013351 -0.073195 0.006559 -0.001834 59.448875 607.192505
72 607.192505 -0.013351 -0.073195 0.006551 -0.001860 59.909832 607.192505
73 607.192505 -0.013351 -0.073195 0.006544 -0.001886 60.370785 607.192505
[Rear_Leg04]
71 995.874512 -0.020504 -0.011921 -0.039185 -0.018339 49.112175 995.874573
72 995.874512 -0.020504 -0.011921 -0.039298 -0.018095 49.824532 995.874573
73 995.874512 -0.020504 -0.011921 -0.039407 -0.017849 50.536827 995.874573
[Rear_Foot]
71 3096.176270 -0.067472 -0.041425 -147.221405 86.598778 47.013477 3096.176270
72 3096.176270 -0.067472 -0.041425 -145.615005 86.412262 48.645916 3096.176270
73 3096.176270 -0.067472 -0.041425 -144.169754 86.223274 50.117355 3096.176270
[planeAlignerCenter]
71 -7.418889 -134.628052 -625.035278 10.585888 -0.001500 179.998184 639.412903
72 -7.450999 -140.849686 -638.321655 10.816942 -0.001496 179.998184 653.719116
73 -7.159779 -140.638733 -652.148438 11.047997 -0.001492 179.998184 667.179199
[Rear_Toe1_01]
71 0.653352 83.966492 -371.173737 0.530671 26.129679 90.902145 380.553192
72 0.653352 83.966492 -371.173737 0.553680 27.492790 90.915306 380.553192
73 0.653352 83.966492 -371.173737 0.577327 28.854733 90.929237 380.553192
[Rear_Toe2_01]
71 178.200760 -294.826019 -362.060547 -7.079000 25.291590 -69.015831 499.765686
72 178.200760 -294.826019 -362.060547 -7.269424 25.360722 -69.168526 499.765686
73 178.200760 -294.826019 -362.060547 -7.422671 25.763655 -69.193787 499.765686
[Rear_Toe3_01]
71 -153.359680 -308.780914 -362.060852 3.304105 23.055933 -110.759026 499.952881
72 -153.359680 -308.780914 -362.060852 3.403192 22.972427 -110.612473 499.952881
73 -153.359680 -308.780914 -362.060852 3.468598 23.385942 -110.594231 499.952881
[planeLockWeightCenter]
71 1000.000244 0.000610 -0.000099 -0.011814 -0.004373 -0.000015 1000.000244
72 1000.000244 0.000610 -0.000095 -0.011814 -0.004373 -0.000015 1000.000244
73 1000.000244 0.000610 -0.000092 -0.011814 -0.004373 -0.000015 1000.000244
[Rear_Toe1_02]
71 379.707825 0.194073 0.000477 -0.002649 -32.560966 -0.002649 379.707855
72 379.707825 0.194073 0.000477 -0.002648 -32.636185 -0.002648 379.707855
73 379.707825 0.194073 0.000477 -0.002647 -32.711399 -0.002647 379.707855
[Rear_Toe1_03]
71 500.129700 0.165701 0.000119 -179.972992 87.392624 -179.976486 500.129761
72 500.129700 0.165701 0.000119 -179.966721 87.910995 -179.970215 500.129761
73 500.129700 0.165701 0.000119 0.000000 89.445740 -0.003491 500.129761
[Rear_Toe2_02]
71 340.494507 0.000238 -0.000954 0.001231 -54.977459 0.001231 340.494507
72 340.494507 0.000238 -0.000954 0.001235 -53.837486 0.001235 340.494507
73 340.494507 0.000238 -0.000954 0.001235 -53.781979 0.001235 340.494507
[Rear_Toe2_03]
71 433.103577 0.000000 0.000238 0.003438 50.079266 0.003438 433.103546
72 433.103577 0.000000 0.000238 0.003325 48.668148 0.003325 433.103546
73 433.103577 0.000000 0.000238 0.003321 48.608387 0.003321 433.103546
[Rear_Toe3_02]
71 340.494141 -0.000358 -0.000477 -0.002486 -48.252327 -0.002486 340.494171
72 340.494141 -0.000358 -0.000477 -0.002498 -46.911877 -0.002498 340.494171
73 340.494141 -0.000358 -0.000477 -0.002497 -46.949558 -0.002497 340.494171
[Rear_Toe3_03]
71 433.103577 0.001431 -0.000238 0.000481 42.547348 -0.003338 433.103546
72 433.103577 0.001431 -0.000238 0.000535 41.000217 -0.003307 433.103546
73 433.103577 0.001431 -0.000238 0.000534 41.042397 -0.003308 433.103546
[Back_Bone]
71 1312.175781 -701.934692 0.000954 1.091462 -1.167343 -85.993675 1488.125488
72 1312.175781 -701.934692 0.000954 1.135435 -1.035512 -85.916840 1488.125488
73 1312.175781 -701.934692 0.000954 1.176859 -0.908350 -85.878693 1488.125488
[Head]
71 1406.159424 809.709290 0.001431 -2.319327 -0.732779 6.400855 1622.625488
72 1406.159424 809.709290 0.001431 -1.990578 -0.855273 6.626225 1622.625488
73 1406.159424 809.709290 0.001431 -1.662336 -0.979042 6.850869 1622.625488
[Motor_Bone]
71 1158.364380 -417.834747 0.000477 -5.513447 1.191204 -104.796608 1231.419434
72 1158.364380 -417.834747 0.000477 -3.495623 0.584029 -105.401451 1231.419434
73 1158.364380 -417.834747 0.000477 0.251712 -0.541767 -106.527855 1231.419434
[Ping_Mechanism]
71 1269.775146 -452.865509 16.503052 0.000103 -0.000053 82.120995 1348.216797
72 1261.344360 -451.153015 13.669427 0.000103 -0.000053 82.120995 1339.669800
73 1255.705200 -449.397644 10.685352 0.000103 -0.000053 82.120995 1333.742188
[BN_LookIK]
71 193.241119 1380.371704 -0.002861 0.000000 89.965736 -31.038179 1393.832153
72 193.241119 1380.371704 -0.002861 0.000000 89.965736 -31.038179 1393.832153
73 193.241119 1380.371704 -0.002861 0.000000 89.965736 -31.038179 1393.832153
[bottomMouth]
71 -435.092926 615.759399 -0.000954 -0.000022 0.000016 73.527184 753.966492
72 -435.092926 615.759399 -0.000954 -0.000022 0.000016 73.527184 753.966492
73 -435.092926 615.759399 -0.000954 -0.000022 0.000016 73.527184 753.966492
[L_Mouth01]
71 554.440979 7.658243 838.222046 150.204178 23.759130 109.605339 1005.027161
72 554.440979 7.658243 838.222046 150.204178 23.759130 109.605339 1005.027161
73 554.440979 7.658243 838.222046 150.204178 23.759130 109.605339 1005.027161
[L_mouthFront]
71 551.629089 934.514771 339.150421 0.000081 2.804060 79.119301 1136.941284
72 551.629089 934.514771 339.150421 0.000081 2.804060 79.119301 1136.941284
73 551.629089 934.514771 339.150421 0.000081 2.804060 79.119301 1136.941284
[mouthGun]
71 55.332661 1627.420898 0.000000 0.000023 0.000009 -11.038128 1628.361328
72 55.332661 1627.420898 0.000000 0.000023 0.000009 -11.038128 1628.361328
73 55.332661 1627.420898 0.000000 0.000023 0.000009 -11.038128 1628.361328
[R_Mouth01]
71 554.442383 7.659197 -838.223938 29.795891 -23.759109 109.605331 1005.029541
72 554.442383 7.659197 -838.223938 29.795891 -23.759109 109.605331 1005.029541
73 554.442383 7.659197 -838.223938 29.795891 -23.759109 109.605331 1005.029541
[R_mouthFront]
71 551.629089 934.514282 -339.151367 0.000029 -2.803930 79.119133 1136.941162
72 551.629089 934.514282 -339.151367 0.000029 -2.803930 79.119133 1136.941162
73 551.629089 934.514282 -339.151367 0.000029 -2.803930 79.119133 1136.941162
[TopMouth]
71 461.269867 -56.106091 -0.008583 -0.000059 -0.000268 92.025169 464.669525
72 461.269867 -56.106091 -0.008583 -0.000059 -0.000268 92.025169 464.669525
73 461.269867 -56.106091 -0.008583 -0.000059 -0.000268 92.025169 464.669525
[weapon_bone]
71 -987.239868 1448.372803 0.001431 0.000000 89.965736 -31.038221 1752.833740
72 -987.239868 1448.372803 0.001431 0.000000 89.965736 -31.038221 1752.833740
73 -987.239868 1448.372803 0.001431 0.000000 89.965736 -31.038221 1752.833740
